PathFileType	4	(X/Y/Z)	59_2_94_p1_0-701.trc
DataRate	CameraRate	NumFrames	NumMarkers	Units	OrigDataRate	OrigDataStartFrame	OrigNumFrames
52.0	52.0	5	27	m	52.0	263	702
Frame#	Time	RHip			RKnee			RAnkle			RBigToe			RSmallToe			RHeel			LHip			LKnee			LAnkle			LBigToe			LSmallToe			LHeel			Neck			Head			Nose			RShoulder			RElbow			RWrist			RThumb			RIndex			RPinky			LShoulder			LElbow			LWrist			LThumb			LIndex			LPinky			
		X1	Y1	Z1	X2	Y2	Z2	X3	Y3	Z3	X4	Y4	Z4	X5	Y5	Z5	X6	Y6	Z6	X7	Y7	Z7	X8	Y8	Z8	X9	Y9	Z9	X10	Y10	Z10	X11	Y11	Z11	X12	Y12	Z12	X13	Y13	Z13	X14	Y14	Z14	X15	Y15	Z15	X16	Y16	Z16	X17	Y17	Z17	X18	Y18	Z18	X19	Y19	Z19	X20	Y20	Z20	X21	Y21	Z21	X22	Y22	Z22	X23	Y23	Z23	X24	Y24	Z24	X25	Y25	Z25	X26	Y26	Z26	X27	Y27	Z27	
263	5.0576923076923075	0.3171346513692874	0.4557535828540615	1.0816041642419334	0.2874043640518844	0.5636064713709231	1.496524412178045	0.29395194144882	0.7499472397441937	1.8930639353946215	0.2753828947727804	0.5509417971030888	1.9292738204715902	0.3357343503307941	0.5966396374662676	1.9229694585419164	0.2867623412275159	0.844796685327718	1.9635511739065785	0.11709646665075911	0.4837888208798926	1.0808107346473963	0.12389771363226619	0.6039066516178502	1.5155070135206663	0.13222631415225924	0.7540557199764609	1.8887525173555264	0.12355696031633917	0.559002652718403	1.9210692466594304	0.07294980650195503	0.6362231867303145	1.9361899428873786	0.1554118684827686	0.8514940951853637	1.9583314371212015	0.2802287055504303	0.4924164777867571	0.5108499475703855	0.3055940565255065	0.4542062399267832	0.263171615371029	0.31335494141963643	0.40811907140376624	0.40760456814878376	0.4193405128213588	0.5018849899307049	0.6256620087904848	0.3617594875893652	0.33620112465871577	0.841165898309004	0.29028614568116956	0.133394017659145	0.8023023065424896	0.2669133937857871	0.057119731628038184	0.7498384819277835	0.2737305689396448	0.007736728992643507	0.7580494153911199	0.25156014285647504	0.04657666787552756	0.8031184480853376	0.10811941357268648	0.4996748205922387	0.5925454008821883	0.029559040942618024	0.4476326512430558	0.820231494389297	0.16186661955820317	0.2426740681250609	0.8108940641655452	0.23495866916821218	0.1774725943657045	0.7760989737661121	0.2308853428637291	0.14702408602579692	0.7835960362337498	0.2036195992597109	0.169184267974423	0.8548114518469971
264	5.076923076923077	0.3227361701079205	0.42721645985511264	1.069376009157864	0.2890720822073292	0.5645804622660916	1.4968855738697924	0.29340816490111876	0.7516767166982318	1.8890931612103676	0.27552334454549754	0.5514635434892952	1.929300641296785	0.335589434026563	0.5987773302688653	1.9195156711560633	0.2865639635141414	0.8441119160137003	1.9639505242815136	0.11862320955694218	0.48360905852177244	1.0783962452334879	0.13396597783522737	0.5888836942580962	1.5075988618039395	0.13241694117489367	0.7538828423240992	1.8885344348857982	0.11960648565779046	0.5593380095403437	1.9255670383343237	0.06973665540433817	0.6235058946437086	1.9261896294361835	0.15548121406438464	0.8510242169624718	1.9583564342587496	0.27647020924085686	0.4801247325833248	0.5112837748134321	0.3055706825074638	0.4543495901946633	0.26308185275125007	0.31377210686709694	0.4065669190588579	0.4079580422381861	0.4193112006761938	0.5018979364711627	0.6256632004917805	0.3583543990547198	0.34760161304418175	0.8414998695809589	0.2912624131366727	0.11365210288037575	0.7903567452766316	0.2746402101592086	0.023528450551644157	0.7427655782513523	0.2776094640060579	-0.012472580979669488	0.7515585219882073	0.2613229796494628	0.04429003928240192	0.7968791928165785	0.10747306521919164	0.5000630554683322	0.5962725267736915	0.03229433744565013	0.4412879659314191	0.8187686187208256	0.16866816600910187	0.29781378894727795	0.8530767622031787	0.2438552247413437	0.22177001508809985	0.8302560008586042	0.23185465860329138	0.205388644152833	0.8649325878271947	0.20793828639416947	0.2585114470704774	0.9221903992647343
265	5.096153846153846	0.327132162905855	0.4387880088722861	1.0673125989721433	0.28903644336033646	0.5605223493244095	1.4873356168252363	0.2934773125806385	0.7517815027538326	1.88922016060264	0.27542072707113197	0.5511968477676724	1.9293235109420568	0.33551264870678393	0.5985811716325032	1.9195807400383798	0.2866219371166709	0.8443368227411072	1.9641001390712338	0.11830649416298188	0.49914964374396215	1.0811598119323513	0.13396676230442744	0.5886096692323423	1.506914656409537	0.13248922425719128	0.7539444672273764	1.888490265012071	0.11883095999063328	0.5566313549730576	1.9202905622101965	0.0702398392408977	0.6214471369365606	1.9299663841946104	0.15556815692564765	0.8512702963807115	1.9583999152399982	0.276399356323026	0.48022183316836115	0.5112073186563407	0.3054876718023455	0.45426922231158456	0.26301923477420497	0.31374099871300765	0.4066662970387812	0.4079665367561366	0.41916125926655756	0.5019833223742618	0.6258181626263503	0.3619769095058409	0.3602656344797687	0.8425772446036905	0.29473703449238586	0.12589277020505232	0.7791372611989319	0.2692805149577376	0.022777943644434286	0.7358502250126854	0.2772565324885443	-0.01173496368467868	0.7496545621043694	0.26145091872525206	0.04627126954833988	0.7793832529060235	0.10754516692471543	0.5001695477869489	0.5962952081718644	0.03648569064208039	0.44585889992069433	0.8235837215939877	0.16647826286964532	0.32411586792432245	0.8665130507261347	0.21763759243378586	0.21081323748879596	0.861046717847144	0.20350508756091717	0.1528462535007235	0.8757578462094987	0.18857126800185003	0.26445190122957574	0.945933042119293
266	5.115384615384615	0.32613106347307164	0.44320619470531997	1.0710772814547962	0.28788607989347675	0.5676152582209132	1.4975220033602654	0.2892378642048352	0.7691380997265833	1.8962699887010528	0.27540683771888275	0.5512934042403342	1.9292256404856025	0.3354738990021832	0.5988197841257833	1.9194398232236507	0.28666106587592455	0.8448026360053082	1.9640175165265743	0.12274717575201946	0.48720480070482325	1.0786006670551067	0.13303062880461672	0.590093591473591	1.510955960316839	0.13246066831345502	0.7543479436998776	1.8885935806500709	0.11889285492804301	0.556742333541464	1.9203052045571858	0.07248416339074845	0.638209846892122	1.93228860393366	0.15550534011736072	0.8516241533925253	1.9583960064557417	0.27235909070505815	0.49403935393689524	0.5108405551528884	0.30534808574001676	0.4538718198590089	0.2627426640723642	0.3133317970667465	0.406830627334075	0.4043779273794971	0.41924748030790504	0.5012346198173612	0.6221029228297957	0.3543967771174938	0.3882704905598854	0.858808211374959	0.2982881460159688	0.12623604199685576	0.7719499875173346	0.2681896911001928	0.020256830688232398	0.6978034847204297	0.279382213432537	-0.004547487669404646	0.7197933393253922	0.2613613358961826	0.04225181930446894	0.7615159933456873	0.10738519175144416	0.5004662481450398	0.5963651496607977	0.02697589723831328	0.45623340155642567	0.8237118457339337	0.147004185204146	0.31073159924632465	0.8771105522624472	0.22184875727286357	0.24740571186241697	0.8800976857353469	0.2301250075869377	0.22350379935833317	0.9091638861932978	0.1766190613820175	0.2640779298462176	0.9499661241151869
267	5.134615384615385	0.32304156635528664	0.4586481052205827	1.077655139003939	0.2882290247200843	0.5660903450981937	1.50149374996134	0.2934425993797861	0.7519256799785188	1.8892438601101398	0.27198024227265954	0.5391419613320697	1.923925892039495	0.33552081520070764	0.5990248311612352	1.9194208527237118	0.2866341124801154	0.844478806351277	1.9639217016161639	0.12196965603693412	0.48837272888667294	1.0825724873831637	0.13316023442884276	0.5899893453549929	1.5112719460883077	0.13248131678029545	0.7542322328854962	1.8885516340037192	0.11882519748578352	0.5564531330809694	1.9201707123363791	0.06976474452709126	0.6234947673675096	1.9261553293331959	0.1555545923599192	0.8516400989356396	1.9583387994435377	0.27232932309886865	0.49412573878804267	0.51089845431243	0.30202610579753497	0.44265320342725545	0.26411826185364334	0.3130073126460696	0.408308766666162	0.4039490598939795	0.41867551677488907	0.49930867587680455	0.6185045433012336	0.36149491198198236	0.36268411376876986	0.8563271687067773	0.30526209683272076	0.12620412290754493	0.7683428678567384	0.2679068624729557	0.040448690565235146	0.6920821083265942	0.27633886100132077	0.0026357749841258754	0.7000448427872108	0.26396373754530394	0.0501688277661429	0.7549563865652633	0.10751861080037217	0.5006624999020791	0.5962952307839033	0.022103972626755643	0.45396250061378607	0.8200993624902114	0.1409842880953408	0.33449638311166163	0.8757900073652607	0.22015734355697938	0.24511151032892545	0.8726345762095354	0.22230445536860474	0.223285334286932	0.8950750568953285	0.1830325838837823	0.27727926212373777	0.9513153060392233
